# xmcd CD database file
#
# Track frame offsets:
#	150
#	15033
#	29225
#	43105
#	55982
#	68250
#	83766
#	92802
#	106265
#	114954
#	128539
#	143701
#	160622
#	170652
#	186688
#
# Disc length: 2702 seconds
#
# Revision: 1
# Processed by: cddbd v1.5.2PL0 Copyright (c) Steve Scherf et al.
# Submitted via: CDex 1.51
#
DISCID=bc0a8c0f
DTITLE=Pete Gavin - 100 Years Tampa Red - a Tribute
DYEAR=2004
DGENRE=Blues
TTITLE0=Tuff Luck Blues
TTITLE1=No Matter How She Done It
TTITLE2=Things About Comin My Way
TTITLE3=Denver Blues
TTITLE4=Anna Lou
TTITLE5=The Sky Is Crying
TTITLE6=You've Got A Reap What You Sow
TTITLE7=New Stanger Blues
TTITLE8=Stormy Sea Blue
TTITLE9=Love Her With A Feeling
TTITLE10=Poor Bay
TTITLE11=It Hurt Me Too
TTITLE12=Don't You Lie To My
TTITLE13=Tampa Tingles
TTITLE14=County Jail Blues
EXTD=YEAR: 2004
EXTT0=
EXTT1=
EXTT2=
EXTT3=
EXTT4=
EXTT5=
EXTT6=
EXTT7=
EXTT8=
EXTT9=
EXTT10=
EXTT11=
EXTT12=
EXTT13=
EXTT14=
PLAYORDER=
